# xmcd
#
# Track frame offsets:
#	200
#	11752
#	24592
#	36895
#	47302
#	60955
#	70837
#	82722
#	95750
#	109385
#	119187
#	130310
#	142007
#	158845
#	171680
#	183837
#
# Disc length: 2566 seconds
#
# Revision: 0
# Processed by: cddbd v1.5.2PL0 Copyright (c) Steve Scherf et al.
# Submitted via: VUPlayer 2.49
#
DISCID=dd0a0410
DTITLE=Patsy Cline - Golden Greats
DYEAR=1991
DGENRE=Country
TTITLE0=Walkin' After Midnight
TTITLE1=I Fall To Pieces
TTITLE2=Crazy
TTITLE3=Who Can I Count On
TTITLE4=She's Got You
TTITLE5=Strange
TTITLE6=When I Get Thru With You
TTITLE7=Imagine That
TTITLE8=So Wrong
TTITLE9=Heartaches
TTITLE10=Leavin' On Your Mind
TTITLE11=Sweet Dreams
TTITLE12=Faded Love
TTITLE13=When You Need A Laugh
TTITLE14=He Called Me Baby
TTITLE15=Anytime
EXTD=
EXTT0=
EXTT1=
EXTT2=
EXTT3=
EXTT4=
EXTT5=
EXTT6=
EXTT7=
EXTT8=
EXTT9=
EXTT10=
EXTT11=
EXTT12=
EXTT13=
EXTT14=
EXTT15=
PLAYORDER=
